Coordinates
version=1
nRows=14
nColumns=40
inDegrees=yes

Units are S.I. units (second, meters, Newtons, ...)
Angles are in degrees.

endheader
time	pelvis_tilt	pelvis_list	pelvis_rotation	pelvis_tx	pelvis_ty	pelvis_tz	hip_flexion_r	hip_adduction_r	hip_rotation_r	knee_angle_r	knee_angle_r_beta	ankle_angle_r	subtalar_angle_r	mtp_angle_r	hip_flexion_l	hip_adduction_l	hip_rotation_l	knee_angle_l	knee_angle_l_beta	ankle_angle_l	subtalar_angle_l	mtp_angle_l	lumbar_extension	lumbar_bending	lumbar_rotation	arm_flex_r	arm_add_r	arm_rot_r	elbow_flex_r	pro_sup_r	wrist_flex_r	wrist_dev_r	arm_flex_l	arm_add_l	arm_rot_l	elbow_flex_l	pro_sup_l	wrist_flex_l	wrist_dev_l
     39.24750000	     -3.24209154	     -4.10074254	     -2.48216034	      1.08503034	      0.93707087	      0.42811155	     34.36844448	     -6.42738656	     -6.14760968	     60.94694739	     60.94694739	      2.94353740	    -14.25540314	      0.75689498	      7.93896194	     -4.45217661	    -13.33764570	     16.44664165	     16.44664165	     13.39165230	     -9.31795302	     -2.69500146	    -10.32247446	      6.87814304	      2.45130441	      2.32743815	    -12.49236333	    -13.31526308	     56.50197328	     46.19089272	      0.00000000	      0.00000000	     16.14452322	    -15.51330350	      5.97319398	     46.38629694	     46.15005795	      0.00000000	      0.00000000
     39.25871429	     -3.11733354	     -4.10222711	     -2.69459448	      1.08434605	      0.93715427	      0.42789492	     34.66851397	     -6.26686887	     -6.14771258	     57.83451311	     57.83451311	      2.75731963	    -13.65474807	      0.81694250	      6.78644800	     -4.31694287	    -13.65291631	     15.68781013	     15.68781013	     13.60758264	     -9.02782865	     -2.88641640	    -10.64927373	      6.99037335	      2.94321031	      0.97357541	    -12.62540457	    -13.60030891	     52.28131806	     46.33133069	      0.00000000	      0.00000000	     17.93439291	    -15.82770149	      5.56098470	     48.52221992	     46.23054580	      0.00000000	      0.00000000
     39.26992857	     -3.15222893	     -4.12933324	     -2.80489360	      1.08358267	      0.93688247	      0.42776801	     34.92012795	     -6.10658449	     -6.32720131	     54.30521627	     54.30521627	      2.21871938	    -13.14605109	      0.01306860	      5.88034785	     -4.22356870	    -13.80106972	     15.00606501	     15.00606501	     13.63945984	     -8.86594374	     -3.49772944	    -10.71912518	      7.10695450	      1.98429297	      1.93228897	    -11.93039950	    -14.85597978	     44.31938115	     46.62581707	      0.00000000	      0.00000000	     18.34001811	    -17.08591802	      4.71255467	     51.91796267	     46.36003988	      0.00000000	      0.00000000
     39.28114286	     -3.12779595	     -4.16316101	     -2.93714781	      1.08292848	      0.93653124	      0.42769927	     34.95203563	     -5.90093507	     -6.53448253	     50.52988088	     50.52988088	      2.06139288	    -12.27711402	      0.27899551	      4.90348004	     -4.13475821	    -13.96617832	     14.36068838	     14.36068838	     13.91858886	     -8.59217618	     -3.59571686	    -10.97967593	      7.30380926	      2.52746274	     -0.03242781	    -12.19228669	    -14.96363798	     42.03295068	     46.69367877	      0.00000000	      0.00000000	     20.10982394	    -17.18356650	      4.15893159	     53.87716726	     46.44938108	      0.00000000	      0.00000000
     39.29235714	     -3.17101341	     -4.07480652	     -3.04164032	      1.08233967	      0.93586120	      0.42777076	     34.86238801	     -5.77855699	     -6.78530762	     46.41674828	     46.41674828	      1.34185532	    -11.60896650	     -1.10926613	      4.01567175	     -3.92586529	    -14.15415924	     13.70525240	     13.70525240	     13.99281100	     -8.37519894	     -4.13143931	    -11.09455896	      7.27395217	      1.87893579	      0.52515929	    -11.72564860	    -16.84755167	     35.09562692	     46.96180540	      0.00000000	      0.00000000	     20.42961904	    -18.09002155	      2.36098791	     57.86425682	     46.68320313	      0.00000000	      0.00000000
     39.30357143	     -3.21731899	     -4.04171200	     -3.15264883	      1.08186874	      0.93506378	      0.42793510	     34.62184579	     -5.57360777	     -7.15139498	     42.17536202	     42.17536202	      1.23018460	    -10.35965413	     -0.69961316	      3.15813908	     -3.79935025	    -14.37174812	     13.15551857	     13.15551857	     14.29168693	     -8.03660507	     -4.29749600	    -11.25579423	      7.38170265	      2.41152349	     -1.40108917	    -11.91831752	    -17.02690973	     33.09179159	     47.02719165	      0.00000000	      0.00000000	     22.12601328	    -18.20887312	      1.96314963	     59.90134762	     46.75883580	      0.00000000	      0.00000000
     39.31478571	     -3.33505445	     -3.96123286	     -3.20801526	      1.08152099	      0.93393714	      0.42825713	     34.25861953	     -5.37785227	     -7.65160438	     37.73354649	     37.73354649	      0.82993745	     -9.09342924	     -1.04936130	      2.39123112	     -3.65802905	    -14.65143827	     12.62553115	     12.62553115	     14.51303930	     -7.51142702	     -4.86667959	    -11.27938688	      7.37828695	      1.95778407	     -1.41864517	    -11.73469540	    -18.51898661	     27.83899452	     47.29641858	      0.00000000	      0.00000000	     22.49302829	    -19.22356776	      1.23933295	     63.82797901	     46.89348493	      0.00000000	      0.00000000
     39.32600000	     -3.41266566	     -3.94154532	     -3.22805975	      1.08138279	      0.93273426	      0.42869012	     33.68504674	     -5.07463832	     -8.28528044	     33.26354695	     33.26354695	      0.71961646	     -7.51618495	     -0.33170418	      1.63239499	     -3.57900254	    -14.74233296	     12.22451343	     12.22451343	     14.84569132	     -7.27097425	     -5.02023985	    -11.30314981	      7.47848059	      2.24135898	     -3.34568355	    -11.83317874	    -18.76831863	     26.45922781	     47.35208363	      0.00000000	      0.00000000	     24.01330368	    -19.34598262	      0.70742529	     65.57773537	     46.97230390	      0.00000000	      0.00000000
     39.33721429	     -3.46121698	     -3.77322119	     -3.26020908	      1.08152825	      0.93129187	      0.42925781	     33.05374638	     -4.90859261	     -9.03900037	     29.05024246	     29.05024246	      0.79316196	     -5.50743362	      0.68523696	      0.80474716	     -3.36755389	    -15.09499918	     11.78233645	     11.78233645	     15.15651978	     -6.66631380	     -5.40441782	    -11.33889517	      7.35798586	      2.19589450	     -4.42534405	    -11.72590524	    -19.89973373	     23.63921087	     47.54541541	      0.00000000	      0.00000000	     24.78997515	    -19.80010447	     -0.14932414	     69.00018994	     47.10953078	      0.00000000	      0.00000000
     39.34842857	     -3.53459983	     -3.68921071	     -3.21426290	      1.08186478	      0.92962761	      0.43002909	     32.29569353	     -4.55301369	     -9.78942477	     24.93505263	     24.93505263	      0.68944867	     -3.89021950	      1.72983770	      0.08214024	     -3.26284896	    -15.09756914	     11.50887724	     11.50887724	     15.58538122	     -6.42089680	     -5.64330438	    -11.26753525	      7.34776094	      2.35279519	     -6.15347534	    -11.69909786	    -20.14454276	     22.46989514	     47.60186348	      0.00000000	      0.00000000	     26.07341670	    -20.00999693	     -0.58156026	     70.74456732	     47.18028715	      0.00000000	      0.00000000
     39.35964286	     -3.55534426	     -3.54168762	     -3.16961512	      1.08249329	      0.92783694	      0.43098673	     31.48909432	     -4.24534768	    -10.65574449	     21.27880171	     21.27880171	      0.71705897	     -2.09068728	      2.92877922	     -0.72206972	     -3.11149523	    -15.20832370	     11.23227451	     11.23227451	     15.99564743	     -6.04086093	     -5.90507320	    -11.22246152	      7.21861659	      2.57487043	     -7.86388980	    -11.58992285	    -20.39476538	     21.29788498	     47.66181883	      0.00000000	      0.00000000	     27.27685425	    -20.13780213	     -0.96456631	     72.88640573	     47.25457230	      0.00000000	      0.00000000
     39.37085714	     -3.50385093	     -3.36648413	     -3.09739332	      1.08336142	      0.92594673	      0.43212724	     30.94363992	     -4.09054850	    -11.82783154	     18.86653060	     18.86653060	      2.20288921	      0.29567239	      7.65321450	     -1.51421526	     -3.03081101	    -15.67413229	     11.20122884	     11.20122884	     16.72097799	     -4.92550943	     -6.21961904	    -11.29118883	      7.00572662	      1.81783406	     -8.40064610	    -11.45533793	    -22.18454916	     19.20379786	     47.95084626	      0.00000000	      0.00000000	     26.87945580	    -21.21357280	     -2.23463263	     77.72776791	     47.46032676	      0.00000000	      0.00000000
     39.38207143	     -3.61421925	     -3.17830070	     -2.99764596	      1.08435923	      0.92379680	      0.43348923	     30.38771531	     -3.77409709	    -12.57308887	     16.45171237	     16.45171237	      2.04477417	      1.29486770	      8.41758372	     -2.15064560	     -2.89420946	    -15.65174011	     11.08761227	     11.08761227	     17.10564210	     -4.78352413	     -6.32840411	    -11.01951643	      6.80536894	      1.95277347	    -10.11138240	    -11.26447156	    -22.34208725	     18.43256202	     47.98664859	      0.00000000	      0.00000000	     28.11481462	    -21.29699813	     -2.59248789	     79.05271281	     47.51960214	      0.00000000	      0.00000000
     39.39328571	     -3.55343677	     -3.11315854	     -2.87230031	      1.08571117	      0.92185640	      0.43504689	     29.67894650	     -3.40087347	    -13.53706600	     14.69704009	     14.69704009	      2.05784226	      2.43238277	      9.12894272	     -2.97657033	     -2.92345244	    -15.66467499	     11.04255264	     11.04255264	     17.64457128	     -4.44441205	     -6.43450737	    -10.95761769	      6.72514714	      2.23376867	    -11.85703625	    -11.10098792	    -22.55061745	     17.84116689	     48.02069894	      0.00000000	      0.00000000	     29.10065264	    -21.19433040	     -2.82584990	     80.96749993	     47.58113776	      0.00000000	      0.00000000
